<?xml version="1.0" encoding="UTF-8" standalone="no"?>
<!-- Generated by IcoMoon.io -->

<svg
   version="1.1"
   width="3434.2913"
   height="720"
   viewBox="0 0 3434.2913 720"
   id="svg8"
   sodipodi:docname="logo (4).svg"
   inkscape:version="1.1 (c68e22c387, 2021-05-23)"
   xmlns:inkscape="http://www.inkscape.org/namespaces/inkscape"
   xmlns:sodipodi="http://sodipodi.sourceforge.net/DTD/sodipodi-0.dtd"
   xmlns="http://www.w3.org/2000/svg"
   xmlns:svg="http://www.w3.org/2000/svg"
   xmlns:rdf="http://www.w3.org/1999/02/22-rdf-syntax-ns#"
   xmlns:cc="http://creativecommons.org/ns#"
   xmlns:dc="http://purl.org/dc/elements/1.1/">
  <defs
     id="defs12" />
  <sodipodi:namedview
     id="namedview10"
     pagecolor="#ffffff"
     bordercolor="#666666"
     borderopacity="1.0"
     inkscape:pageshadow="2"
     inkscape:pageopacity="0.0"
     inkscape:pagecheckerboard="0"
     showgrid="false"
     fit-margin-top="0"
     fit-margin-left="0"
     fit-margin-right="0"
     fit-margin-bottom="0"
     inkscape:zoom="0.1265625"
     inkscape:cx="715.06173"
     inkscape:cy="1291.8518"
     inkscape:window-width="1920"
     inkscape:window-height="1017"
     inkscape:window-x="1912"
     inkscape:window-y="-8"
     inkscape:window-maximized="1"
     inkscape:current-layer="svg8" />
  <title
     id="title2">Charly</title>
  <path
     fill="#505050"
     d="m 1160.5529,114.22694 c -14.9406,0 -33.5841,5.2459 -49.2704,14.96625 -17.9235,9.72034 -47.8302,44.07586 -56.0591,55.28768 -8.9746,12.70332 -12.6519,26.89811 -12.6519,46.31309 v 258.41208 c 0,17.9235 3.703,33.60977 12.6519,47.05883 9.7203,14.19479 38.8814,44.77017 56.0591,54.49051 14.9406,8.97461 33.5841,14.22051 49.2704,14.22051 h 92.6261 c 33.6098,0 67.9653,-22.42366 99.3379,-64.23658 7.4574,-8.9746 11.9575,-16.43201 17.1777,-29.88107 l 3.0087,-7.43169 -88.1517,-23.91514 -2.9573,3.75442 c -9.7203,11.21183 -23.8894,28.31244 -30.6268,32.78689 h -86.6345 c -13.449,-8.97461 -29.1353,-23.14369 -29.8811,-27.61813 l 0.7458,-254.68338 c 6.7117,-11.21183 20.9064,-24.66089 29.1353,-29.13533 h 87.3803 c 7.4574,5.22019 22.3979,22.39794 30.6268,32.09257 l 2.9572,3.75442 88.8975,-26.12664 -5.2202,-8.22887 c -2.2372,-4.47444 -4.4744,-7.45741 -5.9659,-10.44037 -2.983,-5.96593 -5.9659,-11.21183 -10.4404,-16.43202 -32.1183,-43.33012 -65.7281,-64.98232 -99.3378,-64.98232 l -92.6519,-0.0514 z m 305.4709,0 V 601.24719 H 1558.65 V 403.31726 h 145.5994 v 197.92993 h 92.6776 V 114.22694 h -92.6776 V 312.92832 H 1558.65 V 114.22694 Z m 867.8367,0.72002 v 486.27451 h 91.8033 v -190.4468 h 59.7621 l 5.2202,8.94889 94.1176,180.75217 h 107.541 L 2585.5352,403.29155 c 7.4574,-2.23723 15.6606,-5.96593 20.135,-9.69464 11.2118,-8.22886 34.3812,-31.37254 41.8386,-41.83863 9.7204,-14.94054 14.1691,-32.14401 14.1691,-49.32176 v -77.68564 c 0,-18.66923 -5.2202,-35.82128 -14.1691,-49.27033 -6.7116,-10.46609 -29.9067,-34.35551 -41.8386,-42.58438 -14.9405,-11.21182 -36.5413,-17.92349 -57.4478,-17.92349 h -214.3619 z m -317.4799,0.0514 -159.0743,489.23176 h 97.8464 L 1987.991,495.892 h 157.6085 l 32.0926,108.33815 h 98.5921 l -157.6085,-484.01157 -1.5172,-5.22019 h -100.8036 z m 749.8553,0 v 486.22308 h 288.2418 v -90.3632 H 2858.0906 V 114.97268 h -91.8547 z m 280.8101,0 144.9051,266.64095 V 601.2729 h 91.8548 V 381.63934 L 3428.711,115.04982 h -103.1179 l -87.3289,166.55738 -88.8974,-166.55738 z m -622.128,89.59177 h 122.5073 c 3.7287,0 8.2288,3.75442 11.9575,7.48313 5.2202,5.22018 8.9489,11.21183 8.9489,11.21183 v 77.68563 c -5.2202,9.72035 -17.1263,20.135 -20.9064,20.135 H 2424.918 Z m -357.6985,44.25587 49.3218,157.4542 h -98.5921 z m 1329.5018,277.08132 c -20.7522,0 -37.5699,16.81775 -37.5699,37.56992 0,20.75217 16.8177,37.56991 37.5699,37.56991 20.7522,0 37.5699,-16.81774 37.5699,-37.56991 0,-20.75217 -16.8177,-37.56992 -37.5699,-37.56992 z m 0,6.27451 c 17.2806,0 31.2954,14.01479 31.2954,31.29541 0,17.28061 -14.0148,31.2954 -31.2954,31.2954 -17.2806,0 -31.2954,-14.01479 -31.2954,-31.2954 0,-17.28062 14.0148,-31.29541 31.2954,-31.29541 z m -16.432,11.64899 v 40.37287 h 6.5317 V 567.0974 h 2.4172 c 3.2401,0 4.4487,0.15429 5.683,0.79717 1.4658,0.72002 3.0344,2.3658 4.9117,5.16875 1.1829,1.77435 1.62,2.54581 4.423,7.53456 l 0.6428,1.20861 c 0.1543,0.28287 0.5401,0.95147 0.8486,1.46577 l 0.5658,0.95146 h 7.946 l -0.1543,-0.20572 c -0.077,-0.12858 -0.6686,-1.02861 -1.3115,-2.05722 -0.6429,-1.0286 -1.8772,-3.0601 -2.7515,-4.47444 -2.4172,-3.85728 -3.883,-5.96593 -5.3745,-7.68885 -1.5686,-1.80006 -2.1601,-2.34008 -3.7544,-3.11154 l -0.9515,-0.46287 0.4629,-0.10286 c 3.5487,-0.43716 5.9145,-1.5172 7.9974,-3.72871 2.0058,-2.13436 3.0087,-4.70588 3.0087,-7.58598 0,-1.6972 -0.2314,-2.85439 -1.0029,-4.47445 -0.5657,-1.1829 -1.1829,-2.05721 -2.1086,-3.00868 -1.8258,-1.85149 -3.883,-2.75152 -7.2774,-3.16297 -2.2373,-0.28286 -2.9059,-0.28286 -11.7519,-0.30858 l -8.9489,-0.0514 z m 6.5317,5.47734 h 5.323 c 4.2944,0.0257 5.5288,0.0771 6.2745,0.15429 1.3629,0.18001 2.0829,0.38573 3.0087,0.8486 1.4915,0.74574 2.4944,2.00579 2.9058,3.67728 0.1286,0.56573 0.18,0.82288 0.1543,1.62006 -0.077,1.62005 -0.54,2.72581 -1.6458,3.85728 -0.4886,0.48858 -0.7971,0.69431 -1.26,0.90003 -1.0543,0.5143 -1.9544,0.72002 -3.6773,0.95146 -0.6943,0.10286 -2.0058,0.18001 -6.0173,0.20572 h -5.1174 v -6.12022 l 0.052,-6.06878 z"
     id="path4"
     style="stroke-width:25.7152" />
  <path
     fill="#e75f00"
     d="M 737.10061,126.21022 V 106.0495 C 737.10061,47.033108 690.04179,0 631.05111,0 H 332.31758 c -58.24493,0 -106.0495,47.804564 -106.0495,106.0495 v 12.70331 c 0,64.98232 -50.04179,118.75282 -112.76117,124.74446 l -7.45741,0.74574 C 47.804564,244.24301 0,292.04757 0,350.29251 v 20.16072 c 0,59.01639 47.058824,106.0495 106.0495,106.0495 h 8.94889 c 62.7451,6.71167 111.26969,59.76214 111.26969,123.99872 v 13.44905 c 0,58.27065 47.05882,106.0495 106.0495,106.0495 h 298.73353 c 58.24494,0 106.0495,-47.80456 106.0495,-106.0495 v -20.16072 c 0,-59.0164 -47.05882,-106.0495 -106.0495,-106.0495 L 340.54645,486.99454 C 272.58116,485.50305 227.03954,427.97814 227.03954,362.25008 v -5.22019 c 0,-64.98232 50.04178,-118.75281 113.50691,-124.74445 l 290.50466,-0.74574 c 58.24494,0.74574 106.0495,-47.05883 106.0495,-105.30376 z"
     id="path6"
     style="stroke-width:25.7152" />
  <metadata
     id="metadata829">
    <rdf:RDF>
      <cc:Work
         rdf:about="">
        <dc:title>Charly</dc:title>
      </cc:Work>
    </rdf:RDF>
  </metadata>
</svg>
